<?xml version="1.0" encoding="UTF-8"?>
<svg version="1.1" xmlns="http://www.w3.org/2000/svg" width="303" height="83">
<path d="M0 0 C99.99 0 199.98 0 303 0 C303 27.39 303 54.78 303 83 C203.01 83 103.02 83 0 83 C0 55.61 0 28.22 0 0 Z " fill="#19150C" transform="translate(0,0)"/>
<path d="M0 0 C1.6097168 0.01450195 1.6097168 0.01450195 3.25195312 0.02929688 C4.37150391 0.05443359 5.49105469 0.07957031 6.64453125 0.10546875 C7.77568359 0.11900391 8.90683594 0.13253906 10.07226562 0.14648438 C12.86766442 0.18186917 15.66211017 0.23123927 18.45703125 0.29296875 C18.45703125 2.27296875 18.45703125 4.25296875 18.45703125 6.29296875 C11.52703125 6.29296875 4.59703125 6.29296875 -2.54296875 6.29296875 C-2.54296875 20.81296875 -2.54296875 35.33296875 -2.54296875 50.29296875 C16.92703125 50.29296875 36.39703125 50.29296875 56.45703125 50.29296875 C56.45703125 48.31296875 56.45703125 46.33296875 56.45703125 44.29296875 C58.43703125 44.29296875 60.41703125 44.29296875 62.45703125 44.29296875 C62.94929506 51.67692597 62.94929506 51.67692597 60.77148438 54.40234375 C57.93930125 56.71589081 56.64456462 56.76380282 53.03515625 56.68359375 C51.49794922 56.66425781 51.49794922 56.66425781 49.9296875 56.64453125 C48.33447266 56.59425781 48.33447266 56.59425781 46.70703125 56.54296875 C45.08861328 56.51589844 45.08861328 56.51589844 43.4375 56.48828125 C40.77644337 56.4411829 38.11718871 56.37542475 35.45703125 56.29296875 C35.45703125 59.26296875 35.45703125 62.23296875 35.45703125 65.29296875 C38.42703125 65.95296875 41.39703125 66.61296875 44.45703125 67.29296875 C44.45703125 68.61296875 44.45703125 69.93296875 44.45703125 71.29296875 C32.90703125 71.29296875 21.35703125 71.29296875 9.45703125 71.29296875 C9.45703125 69.97296875 9.45703125 68.65296875 9.45703125 67.29296875 C13.41703125 66.30296875 13.41703125 66.30296875 17.45703125 65.29296875 C17.45703125 62.32296875 17.45703125 59.35296875 17.45703125 56.29296875 C16.4354895 56.32438965 16.4354895 56.32438965 15.39331055 56.35644531 C12.31053403 56.43954327 9.22799288 56.49160829 6.14453125 56.54296875 C5.07267578 56.57648437 4.00082031 56.61 2.89648438 56.64453125 C1.86845703 56.65742187 0.84042969 56.6703125 -0.21875 56.68359375 C-1.16661377 56.70454102 -2.11447754 56.72548828 -3.09106445 56.74707031 C-5.54296875 56.29296875 -5.54296875 56.29296875 -7.17195129 54.57112122 C-8.76298986 51.92737046 -8.92257548 50.45205036 -8.93115234 47.38842773 C-8.94533707 45.93188026 -8.94533707 45.93188026 -8.95980835 44.44590759 C-8.95373566 43.40414871 -8.94766296 42.36238983 -8.94140625 41.2890625 C-8.94427643 40.21423111 -8.94714661 39.13939972 -8.95010376 38.03199768 C-8.95214395 35.76164218 -8.94661725 33.49126908 -8.93408203 31.22094727 C-8.91801275 27.73999903 -8.933941 24.26020921 -8.953125 20.77929688 C-8.95114287 18.57421618 -8.94729982 16.36913621 -8.94140625 14.1640625 C-8.94747894 13.12027939 -8.95355164 12.07649628 -8.95980835 11.00108337 C-8.95035187 10.03320389 -8.94089539 9.0653244 -8.93115234 8.06811523 C-8.92876556 7.21636215 -8.92637878 6.36460907 -8.92391968 5.48704529 C-8.02225346 0.29392314 -4.6877295 -0.0744084 0 0 Z " fill="#DBCFCC" transform="translate(15.54296875,6.70703125)"/>
<path d="M0 0 C1.25103516 -0.05994141 1.25103516 -0.05994141 2.52734375 -0.12109375 C6.46094451 0.74563184 7.75684671 2.14254157 10.0625 5.4375 C10.66120946 9.06436211 10.53490464 12.58695364 10.375 16.25 C10.35244141 17.22904297 10.32988281 18.20808594 10.30664062 19.21679688 C10.24789727 21.62527455 10.16582129 24.03059078 10.0625 26.4375 C7.625 26.0625 7.625 26.0625 5.0625 25.4375 C4.7325 24.7775 4.4025 24.1175 4.0625 23.4375 C3.381875 23.9325 2.70125 24.4275 2 24.9375 C-1.66749792 26.81026489 -3.86937045 27.02922793 -7.9375 26.4375 C-10.89885546 23.85580549 -11.80506104 22.24868865 -12.4375 18.375 C-11.82717138 14.78931933 -10.74736461 13.66886307 -7.9375 11.4375 C-5.41274538 10.17512269 -3.62549534 10.33893596 -0.8125 10.375 C0.09757812 10.38402344 1.00765625 10.39304687 1.9453125 10.40234375 C2.64398438 10.41394531 3.34265625 10.42554688 4.0625 10.4375 C4.0625 9.1175 4.0625 7.7975 4.0625 6.4375 C0.1025 6.4375 -3.8575 6.4375 -7.9375 6.4375 C-8.2675 5.1175 -8.5975 3.7975 -8.9375 2.4375 C-5.88284924 0.68089945 -3.51794594 0.09214959 0 0 Z " fill="#E9E4E2" transform="translate(292.9375,29.5625)"/>
<path d="M0 0 C1.25103516 -0.05994141 1.25103516 -0.05994141 2.52734375 -0.12109375 C6.46094451 0.74563184 7.75684671 2.14254157 10.0625 5.4375 C10.66120946 9.06436211 10.53490464 12.58695364 10.375 16.25 C10.35244141 17.22904297 10.32988281 18.20808594 10.30664062 19.21679688 C10.24789727 21.62527455 10.16582129 24.03059078 10.0625 26.4375 C7.625 26.0625 7.625 26.0625 5.0625 25.4375 C4.7325 24.7775 4.4025 24.1175 4.0625 23.4375 C3.381875 23.9325 2.70125 24.4275 2 24.9375 C-1.66749792 26.81026489 -3.86937045 27.02922793 -7.9375 26.4375 C-10.89885546 23.85580549 -11.80506104 22.24868865 -12.4375 18.375 C-11.82717138 14.78931933 -10.74736461 13.66886307 -7.9375 11.4375 C-5.41274538 10.17512269 -3.62549534 10.33893596 -0.8125 10.375 C0.09757813 10.38402344 1.00765625 10.39304687 1.9453125 10.40234375 C2.64398438 10.41394531 3.34265625 10.42554688 4.0625 10.4375 C4.0625 9.1175 4.0625 7.7975 4.0625 6.4375 C0.1025 6.4375 -3.8575 6.4375 -7.9375 6.4375 C-8.2675 5.1175 -8.5975 3.7975 -8.9375 2.4375 C-5.88284924 0.68089945 -3.51794594 0.09214959 0 0 Z " fill="#E9E4E2" transform="translate(234.9375,29.5625)"/>
<path d="M0 0 C1.98 0 3.96 0 6 0 C6.33 3.96 6.66 7.92 7 12 C7.99 11.34 8.98 10.68 10 10 C12.12109375 9.84765625 12.12109375 9.84765625 14.4375 10.0625 C15.58025391 10.14177734 15.58025391 10.14177734 16.74609375 10.22265625 C20.21014915 11.41736513 21.20622633 12.80117111 23 16 C23.47228375 19.45442881 23.37781578 22.83443599 23.25 26.3125 C23.23195312 27.24384766 23.21390625 28.17519531 23.1953125 29.13476562 C23.14834888 31.42424197 23.08269475 33.71158184 23 36 C21.02 36 19.04 36 17 36 C16.93941406 34.72382812 16.87882812 33.44765625 16.81640625 32.1328125 C16.73200432 30.46352984 16.64735614 28.79425963 16.5625 27.125 C16.52318359 26.28324219 16.48386719 25.44148438 16.44335938 24.57421875 C16.40146484 23.76855469 16.35957031 22.96289062 16.31640625 22.1328125 C16.27974854 21.38918457 16.24309082 20.64555664 16.20532227 19.87939453 C16.10044135 17.91135688 16.10044135 17.91135688 15 16 C12.08347826 15.83318891 12.08347826 15.83318891 9 16 C6.64641749 18.35358251 6.72128096 18.92968394 6.5859375 22.1328125 C6.54726562 22.93847656 6.50859375 23.74414062 6.46875 24.57421875 C6.4378125 25.41597656 6.406875 26.25773437 6.375 27.125 C6.33632812 27.97449219 6.29765625 28.82398437 6.2578125 29.69921875 C6.16343506 31.79911684 6.08062414 33.89952891 6 36 C4.02 36 2.04 36 0 36 C0 24.12 0 12.24 0 0 Z " fill="#E9E4E2" transform="translate(195,20)"/>
<path d="M0 0 C3.64355647 1.61935843 6.12645605 3.45012726 8 7 C8 9.31 8 11.62 8 14 C2.39 14 -3.22 14 -9 14 C-8.01 15.98 -7.02 17.96 -6 20 C-4.39592672 20.02708567 -2.7917215 20.04643483 -1.1875 20.0625 C0.15248047 20.07990234 0.15248047 20.07990234 1.51953125 20.09765625 C4.13413791 20.11009967 4.13413791 20.11009967 7 19 C7 20.65 7 22.3 7 24 C2.43351548 26.63046344 -1.8460812 26.66659518 -7 26 C-11.12974965 23.93512518 -13.29527061 22.2541445 -15 18 C-15.7164344 12.95163669 -15.54701546 9.05630571 -13.1875 4.5 C-9.21890671 -0.03553519 -5.81363803 -0.73950386 0 0 Z " fill="#E8E3E0" transform="translate(161,30)"/>
<path d="M0 0 C3.07469523 1.70251719 5.40613254 3.81226508 7 7 C7 9.31 7 11.62 7 14 C1.39 14 -4.22 14 -10 14 C-8.54711014 18.5841963 -8.54711014 18.5841963 -7 20 C-4.98035801 20.07244053 -2.95832876 20.08377188 -0.9375 20.0625 C0.16722656 20.05347656 1.27195313 20.04445313 2.41015625 20.03515625 C3.26480469 20.02355469 4.11945313 20.01195313 5 20 C4.625 22.4375 4.625 22.4375 4 25 C0.28986322 26.85506839 -3.95092823 26.45334699 -8 26 C-12.12580674 23.93709663 -14.31036118 22.25819289 -16 18 C-16.62941829 13.61394833 -17.04352395 9.00170394 -14.94921875 4.984375 C-10.65789267 -0.23104194 -6.46709866 -0.99827697 0 0 Z " fill="#E8E3E1" transform="translate(135,30)"/>
<path d="M0 0 C1.98 0 3.96 0 6 0 C6.33 6.6 6.66 13.2 7 20 C9.0109375 17.525 9.0109375 17.525 11.0625 15 C15.32935531 10.20653912 15.32935531 10.20653912 18.15625 9.3359375 C20.0625 9.375 20.0625 9.375 23 10 C22.60167969 10.44730469 22.20335938 10.89460938 21.79296875 11.35546875 C20.99826172 12.26232422 20.99826172 12.26232422 20.1875 13.1875 C19.66542969 13.77917969 19.14335938 14.37085938 18.60546875 14.98046875 C16.83473147 17.20789253 15.41729471 19.53569479 14 22 C14.6496875 22.84304687 15.299375 23.68609375 15.96875 24.5546875 C16.81275117 25.66126681 17.65648749 26.76804815 18.5 27.875 C18.92925781 28.43058594 19.35851562 28.98617187 19.80078125 29.55859375 C23 33.7734375 23 33.7734375 23 36 C20.4375 36.5625 20.4375 36.5625 17 36 C14.25076109 33.2836861 12.01170292 30.29728821 10 27 C10 26.34 10 25.68 10 25 C6.82990528 26.62078662 6.82990528 26.62078662 6.48828125 29.1640625 C6.43027344 29.97617187 6.37226562 30.78828125 6.3125 31.625 C6.24675781 32.44226562 6.18101563 33.25953125 6.11328125 34.1015625 C6.07589844 34.72804687 6.03851563 35.35453125 6 36 C4.02 36 2.04 36 0 36 C0 24.12 0 12.24 0 0 Z " fill="#EDE8E6" transform="translate(93,20)"/>
<path d="M0 0 C1.65 0 3.3 0 5 0 C5 0.99 5 1.98 5 3 C5.66 2.505 6.32 2.01 7 1.5 C11.11751444 -0.55875722 13.41253398 -0.50971845 18 0 C20.43119623 1.87015094 21.64069173 3.28138345 23 6 C23.08372659 7.52148326 23.10730027 9.04655778 23.09765625 10.5703125 C23.09443359 11.46621094 23.09121094 12.36210938 23.08789062 13.28515625 C23.07951172 14.22230469 23.07113281 15.15945312 23.0625 16.125 C23.05798828 17.06988281 23.05347656 18.01476562 23.04882812 18.98828125 C23.03702357 21.32558387 23.02055759 23.66276061 23 26 C21.02 26 19.04 26 17 26 C16.93941406 24.72382812 16.87882812 23.44765625 16.81640625 22.1328125 C16.73200432 20.46352984 16.64735614 18.79425963 16.5625 17.125 C16.52318359 16.28324219 16.48386719 15.44148438 16.44335938 14.57421875 C16.40146484 13.76855469 16.35957031 12.96289062 16.31640625 12.1328125 C16.27974854 11.38918457 16.24309082 10.64555664 16.20532227 9.87939453 C16.10044135 7.91135688 16.10044135 7.91135688 15 6 C12.08347826 5.83318891 12.08347826 5.83318891 9 6 C6.64641749 8.35358251 6.72128096 8.92968394 6.5859375 12.1328125 C6.54726563 12.93847656 6.50859375 13.74414062 6.46875 14.57421875 C6.4378125 15.41597656 6.406875 16.25773437 6.375 17.125 C6.33632813 17.97449219 6.29765625 18.82398437 6.2578125 19.69921875 C6.16343506 21.79911684 6.08062414 23.89952891 6 26 C4.02 26 2.04 26 0 26 C0 17.42 0 8.84 0 0 Z " fill="#E8E3E1" transform="translate(253,30)"/>
<path d="M0 0 C1.32 0 2.64 0 4 0 C4 1.65 4 3.3 4 5 C6.64 5 9.28 5 12 5 C12 6.65 12 8.3 12 10 C9.69 10 7.38 10 5 10 C5.33 14.95 5.66 19.9 6 25 C7.98 25.33 9.96 25.66 12 26 C11.67 27.65 11.34 29.3 11 31 C9.56344146 31.08131463 8.1255517 31.13933559 6.6875 31.1875 C5.48673828 31.23970703 5.48673828 31.23970703 4.26171875 31.29296875 C2 31 2 31 0.26953125 29.67578125 C-2.58463471 25.90828218 -2.11696121 21.79926573 -2.0625 17.3125 C-2.05798828 16.61060547 -2.05347656 15.90871094 -2.04882812 15.18554688 C-2.03706927 13.45699462 -2.01913454 11.72848635 -2 10 C-2.66 10 -3.32 10 -4 10 C-4 6 -4 6 -2.5625 4.4375 C-2.046875 3.963125 -1.53125 3.48875 -1 3 C-0.67 2.01 -0.34 1.02 0 0 Z " fill="#DED9D6" transform="translate(177,25)"/>
<path d="M0 0 C1.65 0 3.3 0 5 0 C5.17412392 4.28650992 5.30055511 8.57110523 5.38452148 12.86010742 C5.41954781 14.31620163 5.46718806 15.77205274 5.52807617 17.22729492 C6.02340857 29.37750727 6.02340857 29.37750727 3.45019531 33.45703125 C1.54296875 35.31640625 1.54296875 35.31640625 -0.37426758 36.74829102 C-2.28309121 37.99545418 -2.28309121 37.99545418 -3.125 40.875 C-3.558125 41.926875 -3.558125 41.926875 -4 43 C-6.5 43.9375 -6.5 43.9375 -9 44 C-11 42 -11 42 -11.25 39.5 C-11 37 -11 37 -9 35 C-8.195625 34.690625 -7.39125 34.38125 -6.5625 34.0625 C-3.83941975 32.93341795 -2.73376155 32.35333677 -1 30 C-0.491851 26.80522025 -0.491851 26.80522025 -0.48828125 23.14453125 C-0.47033005 22.48289474 -0.45237885 21.82125824 -0.43388367 21.13957214 C-0.37979102 19.03061253 -0.34589069 16.92187901 -0.3125 14.8125 C-0.27932573 13.38082792 -0.24483595 11.94918567 -0.20898438 10.51757812 C-0.12406743 7.0119361 -0.05725079 3.50621527 0 0 Z " fill="#D6CAC7" transform="translate(73,7)"/>
<path d="M0 0 C1.32 0 2.64 0 4 0 C4.17510478 3.70773137 4.28111719 7.41439357 4.375 11.125 C4.45041016 12.69507813 4.45041016 12.69507813 4.52734375 14.296875 C4.67333852 21.98593295 4.67333852 21.98593295 2.68383789 24.98217773 C1.05859375 26.56640625 1.05859375 26.56640625 -2 29 C-3.319018 31.66533035 -3.319018 31.66533035 -4 34 C-5 35 -5 35 -7.4375 35.1875 C-10 35 -10 35 -12 33 C-11.625 29.875 -11.625 29.875 -11 27 C-8.69 26.34 -6.38 25.68 -4 25 C-4 24.34 -4 23.68 -4 23 C-3.01 22.34 -2.02 21.68 -1 21 C-0.49223956 18.78067723 -0.49223956 18.78067723 -0.48828125 16.2109375 C-0.45283203 15.26992188 -0.41738281 14.32890625 -0.38085938 13.359375 C-0.35830078 12.37453125 -0.33574219 11.3896875 -0.3125 10.375 C-0.27833984 9.38242187 -0.24417969 8.38984375 -0.20898438 7.3671875 C-0.12634343 4.91157094 -0.05724873 2.45631859 0 0 Z " fill="#E1D4D1" transform="translate(47,7)"/>
<path d="M0 0 C1.32 0 2.64 0 4 0 C4.02505615 0.81267334 4.0501123 1.62534668 4.07592773 2.46264648 C4.19149118 6.12110752 4.31439584 9.77928528 4.4375 13.4375 C4.47681641 14.71689453 4.51613281 15.99628906 4.55664062 17.31445312 C4.59853516 18.52939453 4.64042969 19.74433594 4.68359375 20.99609375 C4.72025146 22.12200928 4.75690918 23.2479248 4.79467773 24.40795898 C4.71218045 26.92853441 4.71218045 26.92853441 6 28 C6.1875 30.4375 6.1875 30.4375 6 33 C4 35 4 35 1.4375 35.1875 C-1 35 -1 35 -2 34 C-2.125 31 -2.125 31 -2 28 C-1.67 27.67 -1.34 27.34 -1 27 C-0.84174742 25.00217874 -0.74880829 22.99911166 -0.68359375 20.99609375 C-0.64169922 19.78115234 -0.59980469 18.56621094 -0.55664062 17.31445312 C-0.51732422 16.03505859 -0.47800781 14.75566406 -0.4375 13.4375 C-0.39431641 12.15423828 -0.35113281 10.87097656 -0.30664062 9.54882812 C-0.200152 6.36600147 -0.09814038 3.18309326 0 0 Z " fill="#E5D8D5" transform="translate(56,7)"/>
<path d="M0 0 C1.65 0 3.3 0 5 0 C5.06058594 1.31355469 5.12117188 2.62710937 5.18359375 3.98046875 C5.26803256 5.71615541 5.35267888 7.45183198 5.4375 9.1875 C5.47681641 10.05181641 5.51613281 10.91613281 5.55664062 11.80664062 C5.7304295 15.29578654 5.90502095 18.57006524 6.66015625 21.98828125 C6.77230469 22.65214844 6.88445312 23.31601562 7 24 C5 26 5 26 2.5 26.25 C0 26 0 26 -2 24 C-1.71688214 22.32407245 -1.3666432 20.65965709 -1 19 C-0.72495418 15.73373973 -0.58643654 12.4616624 -0.4375 9.1875 C-0.37272461 7.86202148 -0.37272461 7.86202148 -0.30664062 6.50976562 C-0.20108464 4.34000377 -0.10008929 2.1700209 0 0 Z " fill="#D5C9C5" transform="translate(64,7)"/>
<path d="M0 0 C1.32 0 2.64 0 4 0 C4.06058594 0.63808594 4.12117188 1.27617187 4.18359375 1.93359375 C4.26738281 2.75988281 4.35117187 3.58617187 4.4375 4.4375 C4.51871094 5.26121094 4.59992187 6.08492187 4.68359375 6.93359375 C4.78930815 8.98662025 4.78930815 8.98662025 6 10 C6.125 13 6.125 13 6 16 C5 17 5 17 2 17.125 C-1 17 -1 17 -2 16 C-2.125 13.5 -2.125 13.5 -2 11 C-1.67 10.67 -1.34 10.34 -1 10 C-0.76712992 8.31816052 -0.58735834 6.6287584 -0.4375 4.9375 C-0.35371094 4.01839844 -0.26992188 3.09929688 -0.18359375 2.15234375 C-0.12300781 1.44207031 -0.06242187 0.73179687 0 0 Z " fill="#E3D7D3" transform="translate(38,7)"/>
<path d="M0 0 C2.01822917 0.06510417 4.03645833 0.13020833 6.0546875 0.1953125 C5.6796875 3.1328125 5.6796875 3.1328125 5.0546875 6.1953125 C2.34589415 7.54970918 0.04535482 7.26032701 -2.9453125 7.1953125 C-3.5703125 4.8203125 -3.5703125 4.8203125 -3.9453125 2.1953125 C-1.9453125 0.1953125 -1.9453125 0.1953125 0 0 Z " fill="#242017" transform="translate(290.9453125,43.8046875)"/>
<path d="M0 0 C2.01822917 0.06510417 4.03645833 0.13020833 6.0546875 0.1953125 C5.6796875 3.1328125 5.6796875 3.1328125 5.0546875 6.1953125 C2.34589415 7.54970918 0.04535482 7.26032701 -2.9453125 7.1953125 C-3.5703125 4.8203125 -3.5703125 4.8203125 -3.9453125 2.1953125 C-1.9453125 0.1953125 -1.9453125 0.1953125 0 0 Z " fill="#242017" transform="translate(232.9453125,43.8046875)"/>
<path d="M0 0 C2 2 2 2 2 5 C-1.63 5 -5.26 5 -9 5 C-8.67 3.68 -8.34 2.36 -8 1 C-5.23749964 -0.38125018 -3.05268901 -0.19079306 0 0 Z " fill="#242017" transform="translate(161,35)"/>
<path d="M0 0 C3.125 0.25 3.125 0.25 5 1.625 C6.125 3.25 6.125 3.25 6.125 5.25 C2.495 5.25 -1.135 5.25 -4.875 5.25 C-3.64166667 0.31666667 -3.64166667 0.31666667 0 0 Z " fill="#242018" transform="translate(129.875,34.75)"/>
<path d="M0 0 C1.65 0 3.3 0 5 0 C5 2.64 5 5.28 5 8 C3.35 8 1.7 8 0 8 C0 5.36 0 2.72 0 0 Z " fill="#18140B" transform="translate(40,63)"/>
</svg>
